<?xml version="1.0" encoding="utf-8"?>
<!-- Generator: Adobe Illustrator 16.0.0, SVG Export Plug-In . SVG Version: 6.00 Build 0)  -->
<!DOCTYPE svg PUBLIC "-//W3C//DTD SVG 1.1//EN" "http://www.w3.org/Graphics/SVG/1.1/DTD/svg11.dtd">
<svg version="1.1" id="Layer_1" xmlns="http://www.w3.org/2000/svg" xmlns:xlink="http://www.w3.org/1999/xlink" x="0px" y="0px"
	 width="141.732px" height="141.732px" viewBox="0 0 141.732 141.732" enable-background="new 0 0 141.732 141.732"
	 xml:space="preserve">
<g>
	<g>
		<g>
			<g>
				<path fill="#333333" d="M65.276,108.376c0,17.643-14.289,31.936-31.926,31.936l0,0c-17.635,0-31.934-14.293-31.934-31.936
					V33.345c0-17.629,14.299-31.926,31.934-31.926l0,0c17.637,0,31.926,14.297,31.926,31.926V108.376z"/>
				<path fill="#333333" d="M140.315,33.349c0,17.636-14.287,31.933-31.936,31.933c-17.641,0-31.922-14.297-31.922-31.933
					c0-17.631,14.281-31.932,31.922-31.932C126.028,1.417,140.315,15.716,140.315,33.349z"/>
				<path fill="#333333" d="M140.31,108.376c0,17.643-14.281,31.939-31.93,31.939c-17.641,0-31.922-14.297-31.922-31.939
					c0-17.627,14.281-31.922,31.922-31.922C126.028,76.454,140.31,90.749,140.31,108.376z"/>
			</g>
		</g>
	</g>
</g>
</svg>
